<?xml version="1.0" encoding="utf-8"?>
<svg viewBox="-643.47 80.671 2207.732 338.657" xmlns="http://www.w3.org/2000/svg">
  <g transform="matrix(0.1, 0, 0, -0.1, -761.737793, 1010.328735)" fill="#ffffff" stroke="none">
    <path d="M1368 9290 c-15 -4 -29 -6 -32 -3 -3 3 -8 -2 -12 -11 -3 -9 -10 -13 -15 -10 -5 3 -9 0 -9 -5 0 -6 -3 -10 -7 -9 -12 4 -101 -91 -104 -110 -1 -9 -4 -572 -5 -1251 -3 -897 -1 -1238 7 -1248 6 -7 9 -13 5 -13 -4 0 1 -12 11 -27 21 -34 73 -90 73 -79 0 5 9 -2 19 -15 l19 -24 1264 0 c1110 0 1266 2 1281 15 33 31 46 40 55 40 5 0 21 18 36 40 14 22 23 40 20 40 -4 0 0 7 7 17 12 13 15 215 17 1202 3 1151 1 1317 -19 1306 -5 -4 -9 3 -9 13 0 11 -7 23 -16 26 -8 3 -13 10 -10 14 6 9 -35 48 -46 44 -5 -1 -8 2 -8 8 0 10 -29 28 -63 38 -32 10 -2427 12 -2459 2z m1478 -687 c-3 -10 -14 -52 -25 -93 -42 -159 -153 -568 -170 -630 -11 -36 -49 -177 -86 -315 -37 -137 -73 -274 -82 -302 l-14 -53 -79 0 -78 0 8 33 c4 17 42 158 85 312 42 154 83 303 90 330 15 55 129 473 171 625 14 52 28 98 31 103 2 4 38 7 79 7 67 0 75 -2 70 -17z m-626 -330 l-1 -78 -77 -32 c-42 -18 -203 -85 -357 -151 -154 -65 -295 -124 -312 -131 -18 -8 -33 -17 -33 -21 0 -5 383 -173 738 -321 l42 -18 0 -75 c0 -74 0 -75 -22 -67 -13 5 -117 48 -233 97 -115 48 -313 131 -440 184 l-230 96 0 103 0 103 70 29 c39 15 246 102 460 193 215 90 391 165 393 165 1 1 2 -34 2 -76z m1160 -108 c179 -76 359 -151 400 -168 41 -17 81 -35 88 -40 8 -6 12 -40 12 -102 l0 -92 -47 -20 c-84 -36 -603 -253 -748 -314 l-140 -58 -3 71 c-2 50 1 74 10 79 16 11 708 307 749 321 17 6 27 14 22 18 -4 5 -84 41 -178 81 -93 39 -267 113 -385 163 l-215 92 -3 77 -3 76 58 -24 c32 -13 204 -85 383 -160z"/>
    <path d="M19970 7865 l0 -1235 140 0 140 0 0 1235 0 1235 -140 0 -140 0 0 -1235z"/>
    <path d="M5640 9034 c-14 -2 -56 -9 -95 -15 -38 -6 -107 -24 -153 -40 -362 -122 -592 -420 -669 -869 -23 -133 -23 -451 0 -577 80 -430 291 -717 628 -854 206 -84 517 -100 755 -38 99 25 260 103 341 163 213 161 360 429 410 751 18 120 21 394 4 515 -40 287 -141 509 -311 681 -193 195 -399 276 -720 284 -91 2 -176 2 -190 -1z m287 -244 c288 -37 500 -228 596 -535 42 -137 52 -216 52 -430 0 -214 -10 -293 -52 -430 -101 -325 -331 -517 -648 -543 -158 -13 -343 16 -448 70 -212 108 -362 334 -411 619 -51 294 -18 626 83 836 152 317 444 463 828 413z"/>
    <path d="M11573 9030 c-359 -50 -625 -237 -783 -550 -131 -261 -173 -658 -104 -1000 77 -386 305 -676 629 -801 250 -97 589 -103 865 -15 120 38 284 133 355 205 l39 41 -49 101 c-28 55 -53 103 -57 105 -3 2 -38 -20 -78 -49 -202 -153 -391 -217 -637 -217 -435 0 -718 262 -789 730 -7 52 -14 160 -14 239 0 349 79 589 252 763 65 65 94 85 180 127 128 62 220 82 382 82 250 0 418 -57 626 -211 l81 -61 49 106 c28 58 50 109 50 114 0 10 -80 77 -148 124 -101 69 -233 121 -392 153 -87 18 -366 27 -457 14z"/>
    <path d="M19282 8873 l3 -158 168 -3 167 -2 0 160 0 160 -170 0 -171 0 3 -157z"/>
    <path d="M7941 8350 c-190 -27 -353 -122 -439 -257 -15 -24 -30 -43 -33 -43 -4 0 -9 44 -13 98 -4 53 -10 114 -13 135 l-6 38 -131 -3 c-80 -2 -130 -7 -129 -13 15 -96 23 -424 23 -989 l0 -686 140 0 140 0 0 509 c0 557 4 609 57 717 80 164 222 251 424 261 182 9 288 -37 352 -155 55 -101 57 -126 57 -754 l0 -578 140 0 141 0 -3 628 c-4 694 -2 669 -72 818 -61 128 -176 219 -328 258 -75 19 -226 27 -307 16z"/>
    <path d="M9660 8353 c-213 -20 -367 -88 -495 -218 -179 -182 -267 -470 -236 -773 14 -146 34 -219 91 -337 102 -213 290 -353 534 -400 111 -21 319 -19 431 4 151 31 341 118 402 183 l22 23 -42 92 c-23 50 -45 95 -49 99 -4 3 -42 -16 -85 -43 -151 -95 -263 -132 -423 -140 -189 -9 -336 40 -440 147 -96 98 -146 224 -157 398 l-6 92 618 0 618 0 -6 118 c-20 366 -186 628 -455 716 -76 25 -209 47 -260 44 -15 0 -43 -3 -62 -5z m173 -228 c177 -37 286 -152 332 -348 8 -34 15 -74 15 -89 l0 -28 -481 0 -481 0 7 38 c22 117 92 249 171 322 108 99 275 140 437 105z"/>
    <path d="M13450 8349 c-201 -23 -356 -100 -478 -235 -64 -71 -139 -207 -167 -302 -43 -146 -57 -353 -34 -505 52 -344 228 -564 534 -668 64 -22 87 -24 255 -24 168 0 191 2 255 24 203 68 350 194 440 376 55 112 81 208 95 353 21 208 -12 409 -95 577 -118 240 -320 375 -606 405 -104 11 -95 11 -199 -1z m295 -258 c89 -39 144 -82 195 -150 98 -131 136 -284 127 -511 -10 -214 -52 -341 -152 -448 -91 -99 -199 -142 -355 -142 -262 0 -436 144 -497 410 -25 113 -23 369 5 472 30 110 69 183 134 253 103 111 199 147 378 141 92 -2 125 -8 165 -25z"/>
    <path d="M15332 8348 c-164 -20 -297 -101 -387 -235 l-42 -64 -6 48 c-4 26 -9 87 -13 136 l-7 87 -135 0 -135 0 7 -47 c16 -112 25 -507 26 -1055 l0 -588 140 0 140 0 0 528 c0 339 4 550 11 588 14 79 68 189 115 240 90 95 204 139 347 132 141 -6 220 -53 271 -161 44 -95 47 -139 49 -747 l2 -575 143 -3 142 -3 0 538 c0 592 2 607 61 725 43 84 130 169 206 199 49 20 77 23 178 24 111 0 124 -2 171 -27 96 -50 144 -136 164 -290 6 -48 10 -309 10 -625 l0 -543 141 0 140 0 -4 618 c-3 596 -4 620 -25 701 -72 273 -244 405 -527 405 -131 0 -207 -18 -320 -74 -87 -43 -164 -110 -218 -190 l-33 -49 -26 52 c-75 153 -201 234 -399 257 -93 11 -86 11 -187 -2z"/>
    <path d="M18184 8350 c-218 -30 -367 -128 -460 -303 l-21 -40 -7 104 c-4 57 -10 128 -13 157 l-6 52 -134 0 -135 0 6 -27 c19 -89 26 -430 26 -1350 l0 -1033 140 0 140 0 0 502 0 503 34 -50 c71 -105 169 -178 306 -227 67 -25 294 -36 383 -19 230 43 429 214 520 447 58 146 82 337 66 519 -29 337 -180 583 -434 705 -109 52 -283 78 -411 60z m197 -249 c186 -53 306 -204 349 -441 18 -94 15 -300 -4 -395 -56 -268 -237 -425 -490 -425 -182 0 -333 77 -414 212 -130 217 -136 591 -15 832 31 61 124 156 181 185 104 53 272 67 393 32z"/>
    <path d="M21235 8350 c-174 -19 -311 -80 -430 -192 -200 -187 -288 -447 -264 -781 27 -382 225 -641 564 -739 71 -20 102 -23 265 -23 163 0 196 3 274 24 141 37 265 96 345 164 l34 28 -43 95 c-24 52 -47 97 -52 100 -4 3 -39 -15 -77 -40 -140 -94 -262 -134 -426 -143 -360 -18 -575 178 -602 550 l-6 87 618 0 618 0 -6 123 c-13 248 -81 423 -221 562 -90 90 -162 133 -273 163 -85 24 -221 33 -318 22z m194 -221 c203 -32 328 -181 364 -431 l6 -38 -485 0 c-266 0 -484 3 -484 8 0 4 9 41 21 82 77 279 299 425 578 379z"/>
    <path d="M23035 8354 c-11 -2 -45 -9 -75 -15 -139 -27 -281 -131 -346 -253 l-31 -58 -7 84 c-3 46 -9 111 -13 146 l-6 62 -134 0 -135 0 6 -37 c18 -112 26 -396 26 -990 l0 -663 140 0 140 0 0 508 c0 309 4 532 10 568 23 128 96 259 178 319 91 66 239 96 369 76 39 -6 78 -14 87 -17 14 -5 16 9 16 124 l0 130 -28 5 c-44 9 -175 16 -197 11z"/>
    <path d="M19310 7475 l0 -845 140 0 140 0 0 845 0 845 -140 0 -140 0 0 -845z"/>
  </g>
</svg>